#!OML:ASF E:\Steps\Project 1\Capture day 1\Session 2\Subject.ASF
:FULLY-SPECIFIED
:DEGREES
416
root 3.29859 17.0986 7.65032 -153.883 -4.24526 178.074
lowerback -29.9262 -3.31668 -7.02498
upperback -1.95003 -2.76973 -0.0364846
thorax 13.7977 -1.98776 2.59835
lowerneck -3.45443 -1.89053 -1.37761
upperneck -2.89465 -2.2351 5.31861
head -0.233471 -1.03237 1.86617
rclavicle -3.68746e-014 -7.15625e-015
rhumerus -43.2109 -29.0383 -66.6406
rradius 22.0176
rwrist 7.18177
rhand -4.74487 -54.0344
rfingers 7.12502
rthumb 21.0385 -82.9132
lclavicle -3.68746e-014 -7.15625e-015
lhumerus -32.8664 15.7141 71.5416
lradius 14.3645
lwrist -14.5199
lhand -20.7661 -10.3824
lfingers 7.12502
lthumb 5.60022 19.5236
rfemur -23.4118 8.52056 18.642
rtibia 11.7266
rfoot -22.7535 -2.46111
rtoes -16.5938
lfemur -22.7435 -6.79726 -23.3397
ltibia 7.55565
lfoot -5.84423 -6.80757
ltoes -7.52375
417
root 3.29993 17.0985 7.64845 -153.92 -4.2747 178.117
lowerback -29.9031 -3.30265 -7.00466
upperback -1.95475 -2.75856 -0.0485872
thorax 13.7795 -1.98081 2.57994
lowerneck -3.74315 -1.97659 -1.1778
upperneck -2.68475 -2.37119 5.12745
head -0.120451 -1.09689 1.76353
rclavicle 6.95746e-015 -1.43125e-014
rhumerus -43.2645 -29.0957 -66.5886
rradius 21.928
rwrist 7.12525
rhand -4.76312 -53.8647
rfingers 7.12502
rthumb 21.021 -82.7454
lclavicle 6.95746e-015 -1.43125e-014
lhumerus -32.5926 15.5231 71.7871
lradius 14.4136
lwrist -14.3426
lhand -20.9848 -10.2625
lfingers 7.12502
lthumb 5.38903 19.649
rfemur -23.3817 8.5527 18.7036
rtibia 11.729
rfoot -22.7494 -2.49833
rtoes -16.5068
lfemur -22.7143 -6.71973 -23.2903
ltibia 7.55146
lfoot -5.79687 -6.82166
ltoes -7.97271
418
root 3.30073 17.0976 7.64551 -153.947 -4.27528 178.175
lowerback -29.9411 -3.2879 -6.93715
upperback -1.93882 -2.75422 -0.0730245
thorax 13.8112 -1.97489 2.51711
lowerneck -3.71305 -1.9244 -1.36745
upperneck -2.83216 -2.27683 5.36601
head -0.168636 -1.04616 1.87637
rclavicle -2.43014e-014 -2.90226e-014
rhumerus -43.3356 -29.2241 -66.4844
rradius 21.857
rwrist 7.37828
rhand -4.18398 -54.9419
rfingers 7.12502
rthumb 21.5773 -83.7598
lclavicle -2.43014e-014 -2.90226e-014
lhumerus -32.3 15.5045 71.9304
lradius 14.4339
lwrist -14.2971
lhand -21.0213 -10.1912
lfingers 7.12502
lthumb 5.3538 19.7212
rfemur -23.3387 8.54996 18.789
rtibia 11.714
rfoot -22.7323 -2.47483
rtoes -16.6028
lfemur -22.6931 -6.67308 -23.2261
ltibia 7.59953
lfoot -5.88938 -6.84372
ltoes -8.46572
419
root 3.30009 17.0967 7.643 -153.96 -4.25965 178.2
lowerback -30.0669 -3.2891 -6.9075
upperback -1.87711 -2.7448 -0.101318
thorax 13.9352 -1.96977 2.46788
lowerneck -3.77227 -1.86368 -1.39501
upperneck -2.89547 -2.18677 5.39378
head -0.180839 -0.99883 1.8912
rclavicle -3.97569e-016 1.31198e-014
rhumerus -43.3518 -29.4269 -66.3472
rradius 21.6699
rwrist 7.65697
rhand -3.85302 -55.9415
rfingers 7.12502
rthumb 21.8951 -84.7226
lclavicle -3.97569e-016 1.31198e-014
lhumerus -31.8942 15.0092 72.3565
lradius 14.5549
lwrist -13.6916
lhand -20.8203 -9.78952
lfingers 7.12502
lthumb 5.54783 20.1179
rfemur -23.2965 8.50478 18.8342
rtibia 11.6896
rfoot -22.7018 -2.38459
rtoes -16.6011
lfemur -22.6765 -6.70975 -23.1925
ltibia 7.63934
lfoot -5.96018 -6.85987
ltoes -7.87787
420
root 3.29907 17.0954 7.64225 -153.982 -4.23394 178.175
lowerback -30.1473 -3.30363 -7.01813
upperback -1.85188 -2.71856 -0.100907
thorax 14.0004 -1.96619 2.53409
lowerneck -3.73995 -1.88773 -1.33544
upperneck -2.90722 -2.21985 5.39084
head -0.189517 -1.01623 1.87965
rclavicle -1.53561e-014 2.3059e-014
rhumerus -43.4167 -29.4425 -66.319
rradius 21.6267
rwrist 7.67056
rhand -4.18885 -54.9411
rfingers 7.12502
rthumb 21.5726 -83.7596
lclavicle -1.53561e-014 2.3059e-014
lhumerus -31.6067 14.4666 72.851
lradius 14.7298
lwrist -13.1812
lhand -20.8047 -9.63954
lfingers 7.12502
lthumb 5.56295 20.2674
rfemur -23.2566 8.5031 18.7946
rtibia 11.6671
rfoot -22.6897 -2.35658
rtoes -16.6072
lfemur -22.6412 -6.84019 -23.2022
ltibia 7.62462
lfoot -5.98204 -6.75423
ltoes -7.10959
421
root 3.29792 17.0937 7.64102 -153.968 -4.21533 178.15
lowerback -30.2093 -3.34407 -7.11326
upperback -1.8895 -2.74617 -0.098224
thorax 13.989 -1.98732 2.57405
lowerneck -3.57347 -1.93616 -1.34602
upperneck -3.00754 -2.27107 5.59816
head -0.243985 -1.04281 1.95035
rclavicle -7.45443e-016 -2.38542e-015
rhumerus -43.5194 -29.3446 -66.3086
rradius 21.6505
rwrist 7.83122
rhand -4.25753 -54.1183
rfingers 7.12502
rthumb 21.5066 -82.9443
lclavicle -7.45443e-016 -2.38542e-015
lhumerus -31.5332 14.0934 73.1916
lradius 14.9936
lwrist -12.8349
lhand -20.9276 -10.1303
lfingers 7.12502
lthumb 5.44422 19.7797
rfemur -23.2879 8.48583 18.752
rtibia 11.6814
rfoot -22.7004 -2.35439
rtoes -16.5681
lfemur -22.6459 -6.82607 -23.2477
ltibia 7.60822
lfoot -5.96978 -6.73876
ltoes -7.35706
422
root 3.2973 17.0928 7.63722 -153.956 -4.22242 178.235
lowerback -30.3096 -3.36351 -7.04872
upperback -1.90785 -2.79494 -0.0840845
thorax 14.0158 -2.00842 2.53071
lowerneck -3.50734 -1.95236 -1.3563
upperneck -3.07218 -2.28134 5.75529
head -0.272681 -1.04723 2.00423
rclavicle 1.54058e-014 2.54444e-014
rhumerus -43.5037 -29.34 -66.2504
rradius 21.5437
rwrist 8.08379
rhand -3.89819 -54.3992
rfingers 7.12502
rthumb 21.8517 -83.1853
lclavicle 1.54058e-014 2.54444e-014
lhumerus -31.4452 13.5575 73.5915
lradius 15.3809
lwrist -12.1567
lhand -20.8457 -10.4766
lfingers 7.12502
lthumb 5.52332 19.4314
rfemur -23.3021 8.52114 18.8485
rtibia 11.6786
rfoot -22.7074 -2.3621
rtoes -16.3898
lfemur -22.6474 -6.69984 -23.1799
ltibia 7.58238
lfoot -5.93817 -6.78165
ltoes -8.4671
423
root 3.29696 17.0929 7.63453 -153.979 -4.2437 178.353
lowerback -30.3453 -3.31042 -6.94691
upperback -1.95462 -2.76586 -0.104414
thorax 13.9702 -1.99078 2.46486
lowerneck -3.4926 -1.94328 -1.22877
upperneck -2.78694 -2.29886 5.6672
head -0.188637 -1.05823 1.95095
rclavicle -1.59028e-014 -1.74931e-014
rhumerus -43.4882 -29.1034 -66.4746
rradius 21.5798
rwrist 7.58044
rhand -4.36435 -54.2173
rfingers 7.12502
rthumb 21.404 -83.055
lclavicle -1.59028e-014 -1.74931e-014
lhumerus -31.3536 13.0234 73.9323
lradius 15.7307
lwrist -11.6848
lhand -20.7807 -10.2643
lfingers 7.12502
lthumb 5.58607 19.6421
rfemur -23.268 8.57197 18.9892
rtibia 11.6827
rfoot -22.741 -2.39427
rtoes -16.6783
lfemur -22.609 -6.72005 -23.0267
ltibia 7.54818
lfoot -5.93066 -6.73755
ltoes -8.70865
424
root 3.29666 17.093 7.63508 -153.994 -4.26689 178.366
lowerback -30.3307 -3.3014 -6.93497
upperback -2.01301 -2.76651 -0.152393
thorax 13.8922 -1.99117 2.40721
lowerneck -3.36128 -2.00372 -1.31793
upperneck -2.88517 -2.35747 6.00144
head -0.233473 -1.08553 2.07691
rclavicle -2.98177e-015 -3.97569e-015
rhumerus -43.5999 -29.156 -66.4046
rradius 21.5613
rwrist 7.87194
rhand -4.16464 -54.6033
rfingers 7.12502
rthumb 21.5959 -83.4192
lclavicle -2.98177e-015 -3.97569e-015
lhumerus -31.243 12.5294 74.2603
lradius 16.0665
lwrist -11.1509
lhand -20.6653 -9.88465
lfingers 7.12502
lthumb 5.69754 20.0188
rfemur -23.2626 8.55829 19.0117
rtibia 11.6988
rfoot -22.7392 -2.40279
rtoes -16.8978
lfemur -22.5998 -6.76947 -22.9906
ltibia 7.5676
lfoot -5.92363 -6.76382
ltoes -7.65201
425
root 3.29543 17.0927 7.6329 -154.051 -4.28729 178.356
lowerback -30.3626 -3.32688 -6.95329
upperback -1.97825 -2.78351 -0.167124
thorax 13.9478 -1.99951 2.39219
lowerneck -3.40629 -2.04503 -1.43809
upperneck -3.02323 -2.38893 6.20096
head -0.263335 -1.09675 2.16383
rclavicle -4.47266e-016 1.98785e-015
rhumerus -43.4555 -28.9663 -66.6441
rradius 21.713
rwrist 7.59113
rhand -3.90073 -54.7712
rfingers 7.12502
rthumb 21.8493 -83.5576
lclavicle -4.47266e-016 1.98785e-015
lhumerus -30.9558 11.8396 74.8092
lradius 16.3903
lwrist -10.2843
lhand -20.5142 -9.54926
lfingers 7.12502
lthumb 5.84339 20.3502
rfemur -23.2023 8.54556 19.0098
rtibia 11.6976
rfoot -22.6888 -2.37174
rtoes -16.3504
lfemur -22.5186 -6.80611 -23.0088
ltibia 7.54558
lfoot -5.92832 -6.73273
ltoes -7.79271
426
root 3.29375 17.0922 7.62841 -154.109 -4.29308 178.345
lowerback -30.4285 -3.34126 -6.99241
upperback -1.91781 -2.77378 -0.162283
thorax 14.0478 -1.99736 2.41861
lowerneck -3.45719 -2.12451 -1.50075
upperneck -3.14178 -2.48135 6.24606
head -0.286427 -1.14077 2.18915
rclavicle 3.27995e-015 1.70955e-014
rhumerus -43.2913 -28.85 -66.8375
rradius 21.8721
rwrist 7.41351
rhand -3.65661 -55.0489
rfingers 7.12502
rthumb 22.0837 -83.8079
lclavicle 3.27995e-015 1.70955e-014
lhumerus -30.6343 11.3419 75.3079
lradius 16.6433
lwrist -9.83697
lhand -20.5346 -9.32743
lfingers 7.12502
lthumb 5.82369 20.5725
rfemur -23.1277 8.52616 19.0087
rtibia 11.7145
rfoot -22.7255 -2.33099
rtoes -15.9747
lfemur -22.4278 -6.87098 -23.0335
ltibia 7.51641
lfoot -5.95327 -6.62672
ltoes -9.09469
